<svg width="275" height="288" viewBox="0 0 275 288" fill="none" xmlns="http://www.w3.org/2000/svg">
<path d="M274.356 207.15C274.356 321.178 183.024 413.605 70.3724 413.605C-42.2793 413.605 -133.612 321.178 -133.612 207.15C-133.612 93.1231 -42.2793 0.695984 70.3724 0.695984C183.024 0.695984 274.356 93.1231 274.356 207.15Z" stroke="#4D55BC"/>
<path opacity="0.9" d="M248.231 220.371C248.231 327.097 162.747 413.605 57.3095 413.605C-48.1278 413.605 -133.612 327.097 -133.612 220.371C-133.612 113.645 -48.1278 27.1374 57.3095 27.1374C162.747 27.1374 248.231 113.645 248.231 220.371Z" stroke="#4D55BC"/>
<path opacity="0.8" d="M222.105 241.728C222.105 343.398 140.67 425.809 40.2273 425.809C-60.2154 425.809 -141.65 343.398 -141.65 241.728C-141.65 140.057 -60.2154 57.6466 40.2273 57.6466C140.67 57.6466 222.105 140.057 222.105 241.728Z" stroke="#4D55BC"/>
<path opacity="0.7" d="M195.979 260.542C195.979 354.63 120.618 430.894 27.6669 430.894C-65.2839 430.894 -140.646 354.63 -140.646 260.542C-140.646 166.453 -65.2839 90.1898 27.6669 90.1898C120.618 90.1898 195.979 166.453 195.979 260.542Z" stroke="#4D55BC"/>
<path opacity="0.6" d="M166.839 273.762C166.839 361.111 96.8759 431.91 10.5846 431.91C-75.7067 431.91 -145.67 361.111 -145.67 273.762C-145.67 186.414 -75.7067 115.614 10.5846 115.614C96.8759 115.614 166.839 186.414 166.839 273.762Z" stroke="#4D55BC"/>
<path opacity="0.5" d="M131.67 291.559C131.67 369.079 69.5795 431.91 -7.00003 431.91C-83.5796 431.91 -145.67 369.079 -145.67 291.559C-145.67 214.04 -83.5796 151.208 -7.00003 151.208C69.5795 151.208 131.67 214.04 131.67 291.559Z" stroke="#4D55BC"/>
<path opacity="0.4" d="M98.5102 308.34C98.5102 376.592 43.843 431.91 -23.5798 431.91C-91.0026 431.91 -145.67 376.592 -145.67 308.34C-145.67 240.087 -91.0026 184.769 -23.5798 184.769C43.843 184.769 98.5102 240.087 98.5102 308.34Z" stroke="#4D55BC"/>
</svg>
