<svg width="38" height="44" viewBox="0 0 38 44" fill="none" xmlns="http://www.w3.org/2000/svg">
<path d="M30.4185 14.7669H30.0243V12.9412C30.0243 5.89409 25.0735 0.161438 18.9874 0.161438C12.9014 0.161438 7.95054 5.89409 7.95054 12.9412V14.7669H7.55636C3.42699 14.7669 0.0670395 18.6575 0.0670395 23.4389C0.0670395 28.2204 3.42699 32.1109 7.55636 32.1109H11.8923C12.7626 32.1109 13.469 31.293 13.469 30.2853V16.5926C13.469 15.5848 12.7626 14.7669 11.8923 14.7669H11.1039V12.9412C11.1039 7.90782 14.6405 3.81281 18.9874 3.81281C23.3344 3.81281 26.8709 7.90782 26.8709 12.9412V14.7669H26.0826C25.2122 14.7669 24.5059 15.5848 24.5059 16.5926V30.2853C24.5059 31.293 25.2122 32.1109 26.0826 32.1109H26.8709V38.5008C26.8709 39.5077 26.1638 40.3265 25.2942 40.3265H24.5059V39.4137C24.5059 38.4059 23.7995 37.588 22.9292 37.588H17.4107C16.5404 37.588 15.834 38.4059 15.834 39.4137V42.1522C15.834 43.16 16.5404 43.9779 17.4107 43.9779H22.9292H25.2942C27.9029 43.9779 30.0243 41.5214 30.0243 38.5008V32.1109H30.4185C34.5479 32.1109 37.9078 28.2204 37.9078 23.4389C37.9078 18.6575 34.5479 14.7669 30.4185 14.7669ZM10.3156 22.0697H9.52724C8.6569 22.0697 7.95054 22.8876 7.95054 23.8954C7.95054 24.9031 8.6569 25.721 9.52724 25.721H10.3156V28.4596H7.55636C5.16608 28.4596 3.22044 26.2076 3.22044 23.4389C3.22044 20.6703 5.16608 18.4183 7.55636 18.4183H10.3156V22.0697ZM30.4185 28.4596H27.6593V25.721H28.4476C29.318 25.721 30.0243 24.9031 30.0243 23.8954C30.0243 22.8876 29.318 22.0697 28.4476 22.0697H27.6593V18.4183H30.4185C32.8088 18.4183 34.7544 20.6703 34.7544 23.4389C34.7544 26.2076 32.8088 28.4596 30.4185 28.4596Z"/>
</svg>
