<svg width="39" height="44" viewBox="0 0 39 44" fill="none" xmlns="http://www.w3.org/2000/svg">
<path d="M36.7278 9.28987H31.9977V1.98712C31.9977 0.979345 31.2913 0.161438 30.421 0.161438H5.19381C2.58516 0.161438 0.463715 2.6179 0.463715 5.63849V38.5008C0.463715 41.5214 2.58516 43.9779 5.19381 43.9779H33.5744C36.183 43.9779 38.3045 41.5214 38.3045 38.5008V11.1156C38.3045 10.1078 37.5981 9.28987 36.7278 9.28987ZM5.19381 40.3265C4.32426 40.3265 3.61711 39.5077 3.61711 38.5008V5.63849C3.61711 4.63163 4.32426 3.81281 5.19381 3.81281H28.8443V11.1156V38.5008C28.8443 39.1417 28.9452 39.7542 29.1202 40.3265H5.19381ZM35.1511 38.5008C35.1511 39.5077 34.4439 40.3265 33.5744 40.3265C32.7048 40.3265 31.9977 39.5077 31.9977 38.5008V12.9412H35.1511V38.5008Z" />
<path d="M24.1142 9.28986H8.34718C7.47684 9.28986 6.77048 10.1078 6.77048 11.1155C6.77048 12.1233 7.47684 12.9412 8.34718 12.9412H24.1142C24.9845 12.9412 25.6909 12.1233 25.6909 11.1155C25.6909 10.1078 24.9845 9.28986 24.1142 9.28986Z" />
<path d="M20.9608 20.244H8.34718C7.47684 20.244 6.77048 21.0619 6.77048 22.0696C6.77048 23.0774 7.47684 23.8953 8.34718 23.8953H20.9608C21.8311 23.8953 22.5375 23.0774 22.5375 22.0696C22.5375 21.0619 21.8311 20.244 20.9608 20.244Z" />
<path d="M19.3841 25.721H8.34718C7.47684 25.721 6.77048 26.5389 6.77048 27.5467C6.77048 28.5545 7.47684 29.3724 8.34718 29.3724H19.3841C20.2544 29.3724 20.9608 28.5545 20.9608 27.5467C20.9608 26.5389 20.2544 25.721 19.3841 25.721Z" />
<path d="M17.8074 31.1981H8.34718C7.47684 31.1981 6.77048 32.016 6.77048 33.0237C6.77048 34.0315 7.47684 34.8494 8.34718 34.8494H17.8074C18.6777 34.8494 19.3841 34.0315 19.3841 33.0237C19.3841 32.016 18.6777 31.1981 17.8074 31.1981Z" />
</svg>
