<svg width="39" height="44" viewBox="0 0 39 44" fill="none" xmlns="http://www.w3.org/2000/svg">
<path d="M38.1463 22.6047L36.5696 20.779L24.7531 7.09649C24.7515 7.09466 24.7499 7.09283 24.7476 7.0901L20.8027 2.52224L19.226 0.696561C18.6111 -0.0163669 17.6115 -0.0163669 16.9965 0.696561C16.3808 1.40949 16.3808 2.56515 16.9965 3.27807L17.6863 4.07681L3.63406 30.1101L3.45904 29.9075C2.84413 29.1945 1.84451 29.1945 1.2296 29.9075C0.613897 30.6204 0.613897 31.776 1.2296 32.489L2.80629 34.3146L9.11307 41.6174L10.6898 43.443C10.9972 43.8 11.4009 43.978 11.8045 43.978C12.2081 43.978 12.6118 43.8 12.9192 43.443C13.5349 42.7301 13.5349 41.5745 12.9192 40.8615L12.7442 40.6589L14.6528 39.2778C15.5152 41.506 17.4459 43.0651 19.688 43.0651C22.731 43.0651 25.2064 40.1988 25.2064 36.6753C25.2064 35.1289 24.7271 33.6985 23.9127 32.5757L35.2271 24.3875L35.9169 25.1862C36.2243 25.5432 36.628 25.7212 37.0316 25.7212C37.4352 25.7212 37.8389 25.5432 38.1463 25.1862C38.762 24.4733 38.762 23.3177 38.1463 22.6047ZM19.688 39.4138C18.5693 39.4138 17.6304 38.5101 17.3852 37.2996L21.1811 34.5529C21.7203 35.065 22.053 35.8446 22.053 36.6753C22.053 38.1851 20.9919 39.4138 19.688 39.4138ZM19.7069 31.3132L14.9263 34.7711C14.9224 34.7738 14.92 34.7775 14.9161 34.7802L10.4556 38.008L5.92263 32.7592L19.9749 6.72587L21.6013 8.60906L14.4344 21.0566C13.9512 21.8955 14.1475 23.0292 14.8719 23.5879C15.14 23.7969 15.4443 23.8955 15.7446 23.8955C16.2539 23.8955 16.7545 23.6098 17.058 23.0821L23.8749 11.2426L32.9385 21.7375L19.7069 31.3132Z" />
<path d="M30.0224 0.468274C29.2987 -0.0912966 28.3196 0.136001 27.8363 0.974901L26.2596 3.71342C25.7764 4.55232 25.9727 5.68516 26.6972 6.24473C26.9652 6.45286 27.2695 6.55144 27.5699 6.55144C28.0791 6.55144 28.5797 6.26572 28.8832 5.7381L30.4599 2.99958C30.9432 2.16068 30.7469 1.02693 30.0224 0.468274Z" />
<path d="M38.3434 10.1032C37.8602 9.26341 36.881 9.03612 36.1573 9.5966L33.7923 11.4223C33.0678 11.9819 32.8723 13.1147 33.3548 13.9536C33.6583 14.4821 34.1581 14.7669 34.6682 14.7669C34.9685 14.7669 35.2728 14.6683 35.5409 14.4602L37.9059 12.6345C38.6304 12.075 38.8259 10.9421 38.3434 10.1032Z" />
<path d="M37.358 1.60934C36.7431 0.896414 35.7434 0.896414 35.1285 1.60934L31.1868 6.17354C30.5711 6.88647 30.5711 8.04213 31.1868 8.75506C31.4943 9.11198 31.8979 9.28998 32.3015 9.28998C32.7052 9.28998 33.1088 9.11198 33.4162 8.75506L37.358 4.19085C37.9737 3.47793 37.9737 2.32227 37.358 1.60934Z" />
</svg>
