<svg width="39" height="44" viewBox="0 0 39 44" fill="none" xmlns="http://www.w3.org/2000/svg">
<path d="M2.24711 43.9779H36.9345C37.8048 43.9779 38.5112 43.16 38.5112 42.1522V31.2948C38.5112 28.3535 37.5181 25.5931 35.715 23.5218C33.9112 21.4488 31.5365 20.3599 28.9759 20.3434C24.6339 20.3826 22.3596 20.3737 21.1675 20.351V1.98712C21.1675 0.979342 20.4611 0.161438 19.5908 0.161438H2.24711C1.37677 0.161438 0.67041 0.979342 0.67041 1.98712V42.1522C0.67041 43.16 1.37677 43.9779 2.24711 43.9779V43.9779ZM3.82381 36.6752H6.97721V40.3265H3.82381V36.6752ZM18.0141 36.6752V40.3265H10.1306V36.6752H18.0141ZM29.051 36.6752V40.3265H21.1675V36.6752H29.051ZM32.2044 40.3265V36.6752H35.3578V40.3265H32.2044ZM18.0141 3.81281V7.46418H14.8607C13.9904 7.46418 13.284 8.28208 13.284 9.28987C13.284 10.2976 13.9904 11.1156 14.8607 11.1156H18.0141V14.7669H14.8607C13.9904 14.7669 13.284 15.5848 13.284 16.5926C13.284 17.6004 13.9904 18.4183 14.8607 18.4183H18.0141V21.9957C18.0037 22.2604 18.0426 22.5297 18.1338 22.7837C18.6069 24.0906 18.6092 24.0906 29.0006 23.9956C30.6939 24.0086 32.2918 24.7333 33.4932 26.1146C34.6957 27.4946 35.3578 29.3341 35.3578 31.2948V33.0238H3.82381V3.81281H18.0141Z" />
</svg>
