<svg width="39" height="44" viewBox="0 0 39 44" fill="none" xmlns="http://www.w3.org/2000/svg">
<path d="M15.6738 9.82463C15.0587 9.11192 14.0594 9.11192 13.4442 9.82463L12.194 11.2723L10.9437 9.82463C10.3286 9.11192 9.32927 9.11192 8.71414 9.82463C8.09862 10.5378 8.09862 11.6931 8.71414 12.4063L9.96441 13.854L8.71414 15.3017C8.09862 16.0148 8.09862 17.1702 8.71414 17.8833C9.0217 18.2403 9.42511 18.4182 9.82891 18.4182C10.2327 18.4182 10.6361 18.2403 10.9437 17.8833L12.194 16.4356L13.4442 17.8833C13.7518 18.2403 14.1552 18.4182 14.559 18.4182C14.9628 18.4182 15.3662 18.2403 15.6738 17.8833C16.2893 17.1702 16.2893 16.0148 15.6738 15.3017L14.4235 13.854L15.6738 12.4063C16.2893 11.6931 16.2893 10.5378 15.6738 9.82463Z" />
<path d="M26.3842 23.8953C23.3413 23.8953 20.8658 26.7626 20.8658 30.2852C20.8658 33.8077 23.3413 36.6751 26.3842 36.6751C29.4272 36.6751 31.9027 33.8077 31.9027 30.2852C31.9027 26.7626 29.4272 23.8953 26.3842 23.8953ZM26.3842 33.0237C25.0805 33.0237 24.0192 31.7948 24.0192 30.2852C24.0192 28.7755 25.0805 27.5466 26.3842 27.5466C27.688 27.5466 28.7493 28.7755 28.7493 30.2852C28.7493 31.7948 27.688 33.0237 26.3842 33.0237Z" />
<path d="M37.7476 0.696307C37.1324 -0.016406 36.1331 -0.016406 35.518 0.696307L30.612 6.37706C29.1939 5.40939 27.3839 5.41207 25.9674 6.50587L23.9303 8.07928L20.5559 4.17251C20.5459 4.16047 20.5332 4.15245 20.5228 4.14131C18.2948 1.57527 15.3404 0.161438 12.194 0.161438C9.03363 0.161438 6.06462 1.58731 3.83507 4.17251C1.60012 6.75682 0.368713 10.1947 0.368713 13.8541C0.368713 17.5135 1.60012 20.9513 3.83276 23.533C6.07963 26.1418 9.07597 27.557 12.1774 27.557C12.7129 27.557 13.2518 27.4981 13.7903 27.4126L14.6652 28.4266C14.1602 32.6632 15.382 36.9154 18.0238 39.965C20.2549 42.552 23.2239 43.9779 26.3843 43.9779C29.5446 43.9779 32.5136 42.552 34.7431 39.9668C36.9781 37.3825 38.2095 33.9446 38.2095 30.2853C38.2095 26.641 36.9877 23.2179 34.7701 20.6376C34.7612 20.6264 34.7551 20.6135 34.7455 20.6037L31.4762 16.8181L32.852 14.265C33.7508 12.598 33.7157 10.5495 32.8566 8.94042L37.7476 3.27705C38.3631 2.56478 38.3631 1.40947 37.7476 0.696307ZM32.5128 37.3843C30.878 39.2813 28.7012 40.3265 26.3843 40.3265C24.0673 40.3265 21.8905 39.2813 20.2526 37.3816C18.1609 34.9662 17.2805 31.5284 17.8976 28.1841C17.8983 28.1792 17.8983 28.1747 17.8991 28.1703C17.9141 28.086 17.9191 28.0014 17.9237 27.9153C17.9253 27.8801 17.9322 27.8436 17.9322 27.8088C17.9322 27.7411 17.923 27.6738 17.9164 27.606C17.9118 27.5556 17.9126 27.5048 17.9041 27.4553C17.8968 27.4126 17.8818 27.3716 17.8718 27.3297C17.8552 27.2592 17.8417 27.187 17.8179 27.1197C17.8033 27.0765 17.7809 27.0382 17.7628 26.9963C17.7351 26.9316 17.7101 26.8657 17.6762 26.8055C17.6581 26.7734 17.6343 26.7462 17.6146 26.7159C17.5719 26.6495 17.5296 26.5826 17.4791 26.5233C17.4761 26.5198 17.4745 26.5153 17.4711 26.5118L15.4528 24.1739C15.449 24.169 15.4444 24.1664 15.4413 24.1619C15.397 24.1115 15.3466 24.0696 15.2969 24.0259C15.2631 23.9956 15.2323 23.9609 15.1968 23.9346C15.1564 23.9043 15.1118 23.8824 15.069 23.857C15.0217 23.8276 14.9759 23.7942 14.927 23.771C14.8381 23.7291 14.7442 23.6983 14.6487 23.6752C14.6456 23.6743 14.6425 23.6725 14.6387 23.6716C14.5659 23.6551 14.4905 23.6515 14.4154 23.6471C14.3889 23.6453 14.3619 23.6391 14.335 23.6391C14.2888 23.6391 14.2422 23.6498 14.1949 23.6542C14.1371 23.6609 14.079 23.6636 14.022 23.6761C14.0174 23.6774 14.012 23.6774 14.007 23.6783C11.1169 24.3928 8.14982 23.3761 6.06154 20.9496C4.42479 19.0575 3.52211 16.5369 3.52211 13.8541C3.52211 11.1713 4.42479 8.6507 6.06539 6.75503C7.70021 4.85803 9.87703 3.81281 12.194 3.81281C14.5109 3.81281 16.6877 4.85803 18.3225 6.75503C18.3291 6.76217 18.3368 6.76751 18.3437 6.77509L22.5976 11.7008C22.6119 11.7182 22.6269 11.7356 22.6419 11.7516L28.3613 18.3746C28.3755 18.3911 28.3898 18.408 28.4048 18.4245L32.4955 23.1612C32.5028 23.1697 32.5074 23.1795 32.5144 23.1889C34.1534 25.0819 35.0561 27.6024 35.0561 30.2853C35.0561 32.9681 34.1534 35.4886 32.5128 37.3843V37.3843ZM26.2037 10.7131L27.7165 9.54437C28.1973 9.17219 28.8455 9.24619 29.2555 9.71999L30.0042 10.5869C30.4072 11.0545 30.478 11.7721 30.1763 12.3324L29.1877 14.1683L26.2037 10.7131Z" />
<path d="M21.9806 23.3604C22.5961 22.6473 22.5961 21.492 21.9806 20.7788L20.4039 18.9531C19.7888 18.2404 18.7895 18.2404 18.1743 18.9531C17.5588 19.6663 17.5588 20.8216 18.1743 21.5347L19.751 23.3604C20.0586 23.7175 20.462 23.8953 20.8658 23.8953C21.2696 23.8953 21.673 23.7175 21.9806 23.3604Z" />
</svg>
