<svg width="39" height="44" viewBox="0 0 39 44" fill="none" xmlns="http://www.w3.org/2000/svg">
<path d="M36.4261 20.244H33.2412C33.2538 19.94 33.2727 19.6369 33.2727 19.3311C33.2727 11.3602 28.9344 4.13504 22.4739 1.35179C22.4613 1.34631 22.4487 1.34266 22.4361 1.33809C22.4329 1.33718 22.4306 1.33444 22.4274 1.33353C22.4235 1.3317 22.4195 1.3317 22.4156 1.33079C20.5842 0.556699 18.6686 0.161438 16.7174 0.161438C15.4008 0.161438 14.1269 0.359525 12.8986 0.697277C12.7544 0.715534 12.6132 0.75935 12.4776 0.823249C5.39984 2.99947 0.162048 10.4601 0.162048 19.3311C0.162048 19.4124 0.17072 19.4927 0.171509 19.574C0.173874 19.6214 0.171509 19.6698 0.177027 19.7154C0.254285 24.1336 1.63942 28.3957 4.1172 31.7504C4.11799 31.7513 4.11956 31.7531 4.12035 31.754C4.12193 31.7558 4.12351 31.7577 4.12508 31.7604C7.2769 36.0444 11.8659 38.5008 16.7174 38.5008H31.0425L35.3114 43.443C35.6126 43.7926 36.0162 43.9779 36.4261 43.9779C36.6287 43.9779 36.8345 43.9323 37.0292 43.8391C37.6189 43.5562 38.0028 42.8907 38.0028 42.1522V22.0697C38.0028 21.0619 37.2965 20.244 36.4261 20.244ZM20.8152 12.6975L22.8728 5.55634C27.2616 8.19993 30.1193 13.5154 30.1193 19.3311C30.1193 19.636 30.1115 19.9409 30.0965 20.244H26.0641C25.5989 19.1979 24.9052 18.3078 24.0293 17.6698L21.8764 16.1234C20.8807 15.4004 20.4447 13.9901 20.8152 12.6975ZM11.6026 4.99312L12.1079 7.33364C12.3665 8.52947 11.9266 9.75907 11.0129 10.3944C9.7405 11.279 8.84099 12.6838 8.4815 14.3507L8.13699 15.9481C7.84688 17.2928 6.76526 18.1691 5.58432 18.0431C4.8685 17.9646 4.11326 17.8843 3.38324 17.8094C3.87202 12.0092 7.13027 7.14012 11.6026 4.99312ZM15.1407 34.7417C12.5265 34.383 10.0763 33.1297 8.07156 31.1616L9.09563 30.6394C10.4476 29.9438 11.9983 29.9311 13.3559 30.6038L14.7891 31.3113C14.9018 31.3688 15.024 31.4126 15.1407 31.4637V34.7417ZM15.1407 22.0697V27.5166L14.5952 27.2473C12.4374 26.1765 9.96675 26.1966 7.82323 27.2993L6.58316 27.9319C6.33088 28.0607 6.06442 28.1958 5.80505 28.3272C4.55394 26.2998 3.75692 23.9474 3.45814 21.4827C4.0699 21.5466 4.69348 21.6132 5.28632 21.679C5.46685 21.6981 5.6466 21.7082 5.82476 21.7082C8.35773 21.7082 10.5691 19.7383 11.1958 16.8336L11.5403 15.2361C11.6956 14.5159 12.0843 13.9079 12.6353 13.5255C14.7465 12.0585 15.7643 9.2141 15.1667 6.4491L14.6425 4.01911C15.3204 3.89588 16.0102 3.81281 16.7174 3.81281C17.8029 3.81281 18.8735 3.97438 19.9189 4.27106L17.8227 11.5446C16.9925 14.441 17.9709 17.5958 20.2066 19.2216L21.6304 20.244H16.7174C15.8471 20.244 15.1407 21.0619 15.1407 22.0697ZM34.8494 37.7441L32.8108 35.3844C32.5151 35.0421 32.1139 34.8495 31.696 34.8495H18.2941V30.1246C18.2941 30.1219 18.2941 30.1191 18.2941 30.1155V23.8954H24.9919C24.9927 23.8954 24.9935 23.8954 24.9943 23.8954C24.9951 23.8954 24.9966 23.8954 24.9974 23.8954H31.5068H34.8494V37.7441Z" />
<path d="M22.2358 27.5467H21.4474C20.5771 27.5467 19.8707 28.3646 19.8707 29.3724C19.8707 30.3802 20.5771 31.1981 21.4474 31.1981H22.2358C23.1061 31.1981 23.8125 30.3802 23.8125 29.3724C23.8125 28.3646 23.1061 27.5467 22.2358 27.5467Z" />
<path d="M26.9659 27.5467H26.1775C25.3072 27.5467 24.6008 28.3646 24.6008 29.3724C24.6008 30.3802 25.3072 31.1981 26.1775 31.1981H26.9659C27.8362 31.1981 28.5426 30.3802 28.5426 29.3724C28.5426 28.3646 27.8362 27.5467 26.9659 27.5467Z" />
<path d="M31.696 27.5467H30.9076C30.0373 27.5467 29.3309 28.3646 29.3309 29.3724C29.3309 30.3802 30.0373 31.1981 30.9076 31.1981H31.696C32.5663 31.1981 33.2727 30.3802 33.2727 29.3724C33.2727 28.3646 32.5663 27.5467 31.696 27.5467Z" />
</svg>
